<svg xmlns="http://www.w3.org/2000/svg" width="1124" height="1124" viewBox="0 0 297.392 297.392">
  <text style="line-height:0%;-inkscape-font-specification:'Droid Sans Thai';text-indent:0;text-align:center;text-decoration-line:none;text-decoration-style:solid;text-decoration-color:#000;text-transform:none;isolation:auto;mix-blend-mode:normal;marker:none" x="-26.139" y="-212.249" transform="rotate(30 -.73 .196)" color="#000" font-weight="400" font-size="3.387" font-family="Droid Sans Thai" text-anchor="middle" white-space="normal" overflow="visible" fill-rule="evenodd" stroke-width=".14" stroke-linejoin="round" stroke-miterlimit="10">
    <tspan x="-23.658" y="-212.249" style="line-height:0" font-size="14.111"></tspan>
  </text>
  <g transform="matrix(1.48342 0 0 1.48342 -11.5 -103.418)">
    <path d="M144.746 75.28c-2.207-1.274-5.479.265-6.753 2.472l-1.092 1.892a4.597 4.597 0 0 0 .148 4.83c-.17.247-.338.498-.49.762l-21.703 37.59c-1.234.773-2.479 1.6-3.768 2.388l-66.04 39.783c-10.724 6.56-5.519 20.406.311 23.772l80.832 46.668c5.83 3.366 20.417 1.206 20.743-11.616l1.435-77.083c.038-1.51.132-3.002.184-4.457l21.703-37.59c.152-.264.285-.536.415-.806a4.597 4.597 0 0 0 4.257-2.287l1.092-1.891c1.274-2.207.984-5.803-1.223-7.077z"/>
    <g transform="rotate(30 732.975 -450.648) scale(.45977)" fill="#fff">
      <path d="M1080.3 768.8h31.307c12.456 0 16.531 11.607 22.483 22.611l70.701 130.71c14.28 26.399-10.028 38.012-22.484 38.012h-172.71c-12.456 0-35.208-14.489-22.483-38.012l70.701-130.71c5.952-11.004 10.028-22.611 22.483-22.611z"/>
      <rect x="1063.8" y="670.49" width="64.23" height="117.7" ry="0"/>
      <rect x="-671.96" y="1058.1" width="13.263" height="75.529" ry="4.3" transform="rotate(-90)"/>
    </g>
    <path d="M139.316 157.34l-2.191 55.683c-.48 12.19-11.255 11.343-15.64 8.811l-60.795-35.1c-4.384-2.531-9.461-12.275-.189-17.95l45.417-27.793c15.064 18.883 34.407 1.74 33.398 16.35z" fill="#648700"/>
    <rect transform="rotate(30)" x="185.743" y="3.281" width="4.256" height="46.313" ry="2.128"/>
    <path d="M132.6 146.234c-1.09 0-1.28.282-1.389 2.05-.135 2.2-.512 2.966-2.14 4.355-1.108.945-1.59 1.228-3.395 1.993-2.543 1.079-4.158 1.544-10.628 3.062-9.267 2.175-11.304 2.943-15.867 5.99-6.54 4.366-9.93 9.172-11.26 15.957-.244 1.25-.302 2.359-.296 5.763.01 6.011.48 8.638 1.67 9.309 1.175.663 3.34-.322 6.375-2.897 3.596-3.054 4.902-5.078 7.38-11.443.672-1.728 1.366-3.345 1.541-3.594.402-.569 1.063-.735 1.517-.381.448.349.426.593-.273 2.922-.696 2.322-.796 3.268-.38 3.626.46.398 1.025.144 2.203-.991 3.4-3.275 6.235-6.752 9.22-11.303 2.098-3.202 2.417-3.597 2.996-3.723 1.55-.335 1.11 1.651-1.274 5.746-5.513 9.468-16.16 19.326-28.196 26.108a97.688 97.688 0 0 1-5.17 2.69v3.42c3.628-1.554 6.744-2.83 7.195-2.933.51-.117 2.264-.274 3.897-.348 3.523-.161 5.256-.455 9.1-1.544 10.009-2.835 17.78-8.356 23.732-16.86 2.022-2.89 3.023-5.006 4.13-8.73 2.078-6.986 2.494-13.278 1.416-21.413-.463-3.492-.956-6.18-1.194-6.504-.183-.25-.398-.327-.91-.327z" fill="#fff"/>
  </g>
  <g aria-label="ds@buckeye" style="line-height:1.25" font-weight="600" font-size="40.779" font-family="Uni Sans SemiBold" letter-spacing="0" word-spacing="0" stroke-width=".306">
    <path d="M57.558 255.893v8.32c-4.812-2.325-12.234.203-12.193 6.442v7.79c.693 8.685 10.52 7.91 16.678 5.464v-28.016zm0 25.324c-2.406 1.06-7.504.938-7.708-2.773v-7.993c.327-3.425 5.18-3.996 7.708-2.406zM65.009 280.198c3.344 7.3 15.781 6.606 15.781-1.59-.04-4.486-3.588-5.791-6.973-6.362-1.753-.286-3.996-.897-3.833-2.773.245-2.651 5.301-2.447 7.626-.123l2.691-2.936c-2.08-2.039-4.649-3.017-6.892-3.017-3.588 0-7.87 1.753-7.87 6.443 0 4.77 4.526 5.953 7.503 6.524 1.468.327 3.303.775 3.303 2.325-.163 3.425-5.831 3.099-7.992-.653zM93.505 272.531c0-2.936 1.59-7.095 4.975-7.014 1.142 0 1.672 1.06 1.672 2.57 0 2.69-2.12 6.85-4.772 6.85-1.141 0-1.875-1.142-1.875-2.406zm13.702-4.567c-.041 3.466-2.243 7.626-4.609 7.707l2.529-12.397-3.018-.57-.285.937c-.98-2.65-5.139-2.202-7.3-1.142-3.588 1.754-5.22 5.75-5.22 10.073 0 5.057 5.302 8.523 9.828 5.505.571 1.142 1.754 1.59 2.855 1.59 4.649 0 9.297-5.097 9.297-11.785 0-6.891-5.79-12.152-13.498-12.152-8.115 0-14.476 6.484-14.476 14.68 0 8.197 4.486 14.722 14.436 14.722 1.794 0 3.751-.408 6.32-1.427l-1.712-3.263c-9.339 3.344-15.456-2.61-15.252-9.99.163-5.424 4.037-10.889 10.766-10.889 5.138 0 9.38 2.855 9.339 8.4zM114.14 255.893v28.016c6.159 2.446 15.986 3.221 16.68-5.465v-7.789c.04-6.239-7.381-8.767-12.193-6.443v-8.319zm4.487 12.152c2.528-1.59 7.38-1.02 7.707 2.406v7.993c-.204 3.711-5.301 3.833-7.707 2.773zM151.37 263.682h-4.444v16.923c-2.651 1.428-7.463.857-7.626-2.65v-14.273h-4.486v14.191c0 8.32 9.583 8.605 16.557 5.587zM155.468 277.832c0 4.894 4.2 7.26 8.32 7.26 3.302 0 7.136-1.51 8.277-5.547l-4.16-1.55c-1.1 3.956-7.502 3.344-7.951-.122v-7.218c.449-3.466 6.85-4.078 7.952-.122l4.078-1.55c-1.142-4.037-4.894-5.546-8.197-5.546-4.119 0-8.319 2.366-8.319 7.26zM174.762 255.934v28.872h4.486v-7.381l1.264-1.265 6.647 8.646h5.26l-8.767-11.378 8.808-9.746h-5.627l-7.585 8.523v-16.271zM205.898 272.613h-7.748v-2.04c-.164-4.077 7.748-4.036 7.748-.08zm-.082 6.157c-1.713 3.548-7.748 2.692-7.667-.774v-1.672h12.071v-5.75c0-4.935-4.2-7.259-8.237-7.259-4.16 0-8.36 2.324-8.36 7.259v7.422c0 4.852 4.2 7.258 8.36 7.258 2.773 0 5.954-1.427 7.585-4.322zM226.376 263.682v16.393c-2.283 1.631-7.748 1.264-7.952-2.202v-14.191h-4.485v14.15c0 6.199 7.38 8.727 12.6 6.566.45 5.383-7.177 5.016-9.705 1.672l-2.691 2.569c3.792 5.913 16.678 5.546 16.678-3.833v-21.124zM247.075 272.613h-7.748v-2.04c-.163-4.077 7.748-4.036 7.748-.08zm-.081 6.157c-1.713 3.548-7.749 2.692-7.667-.774v-1.672h12.07v-5.75c0-4.935-4.2-7.259-8.237-7.259-4.16 0-8.36 2.324-8.36 7.259v7.422c0 4.852 4.2 7.258 8.36 7.258 2.773 0 5.954-1.427 7.585-4.322z" style="-inkscape-font-specification:'Uni Sans SemiBold, Semi-Bold';font-variant-ligatures:normal;font-variant-caps:normal;font-variant-numeric:normal;font-feature-settings:normal;text-align:start"/>
  </g>
</svg>
