<?xml version="1.0" encoding="UTF-8" standalone="no"?>
<!-- Created with Inkscape (http://www.inkscape.org/) -->

<svg
   xmlns:dc="http://purl.org/dc/elements/1.1/"
   xmlns:cc="http://creativecommons.org/ns#"
   xmlns:rdf="http://www.w3.org/1999/02/22-rdf-syntax-ns#"
   xmlns:svg="http://www.w3.org/2000/svg"
   xmlns="http://www.w3.org/2000/svg"
   xmlns:sodipodi="http://sodipodi.sourceforge.net/DTD/sodipodi-0.dtd"
   xmlns:inkscape="http://www.inkscape.org/namespaces/inkscape"
   width="1124"
   height="1124"
   viewBox="0 0 297.39166 297.39167"
   version="1.1"
   id="svg3787"
   sodipodi:docname="ds_at_buckeye_draft2.svg"
   inkscape:version="0.92.2 (5c3e80d, 2017-08-06)"
   inkscape:export-filename="C:\Users\dustinburt\Pictures\icons\ds_at_buckeye_draft1.png"
   inkscape:export-xdpi="17.104252"
   inkscape:export-ydpi="17.104252">
  <defs
     id="defs3781" />
  <sodipodi:namedview
     id="base"
     pagecolor="#ffffff"
     bordercolor="#666666"
     borderopacity="1.0"
     inkscape:pageopacity="0.0"
     inkscape:pageshadow="2"
     inkscape:zoom="0.49497475"
     inkscape:cx="23.657247"
     inkscape:cy="481.31902"
     inkscape:document-units="mm"
     inkscape:current-layer="layer1"
     showgrid="false"
     inkscape:window-width="1804"
     inkscape:window-height="951"
     inkscape:window-x="-8"
     inkscape:window-y="-8"
     inkscape:window-maximized="1"
     units="px" />
  <metadata
     id="metadata3784">
    <rdf:RDF>
      <cc:Work
         rdf:about="">
        <dc:format>image/svg+xml</dc:format>
        <dc:type
           rdf:resource="http://purl.org/dc/dcmitype/StillImage" />
        <dc:title></dc:title>
      </cc:Work>
    </rdf:RDF>
  </metadata>
  <g
     inkscape:label="Layer 1"
     inkscape:groupmode="layer"
     id="layer1"
     transform="translate(0,0.39168333)">
    <text
       xml:space="preserve"
       style="color:#000000;font-style:normal;font-variant:normal;font-weight:normal;font-stretch:normal;font-size:3.38666677px;line-height:0%;font-family:'Droid Sans Thai';-inkscape-font-specification:'Droid Sans Thai';text-indent:0;text-align:center;text-decoration:none;text-decoration-line:none;text-decoration-style:solid;text-decoration-color:#000000;letter-spacing:normal;word-spacing:normal;text-transform:none;writing-mode:lr-tb;direction:ltr;baseline-shift:baseline;text-anchor:middle;white-space:normal;clip-rule:nonzero;display:inline;overflow:visible;visibility:visible;opacity:1;isolation:auto;mix-blend-mode:normal;color-interpolation:sRGB;color-interpolation-filters:linearRGB;solid-color:#000000;solid-opacity:1;fill:#000000;fill-opacity:1;fill-rule:evenodd;stroke:none;stroke-width:0.13998222;stroke-linecap:butt;stroke-linejoin:round;stroke-miterlimit:10;stroke-dasharray:none;stroke-dashoffset:0;stroke-opacity:1;marker:none;color-rendering:auto;image-rendering:auto;shape-rendering:auto;text-rendering:auto;enable-background:accumulate"
       x="-26.138769"
       y="-212.24863"
       id="text3347"
       transform="rotate(30)"><tspan
         sodipodi:role="line"
         id="tspan3349"
         x="-23.6583"
         y="-212.24863"
         style="font-size:14.11111164px;line-height:0;stroke-width:0.13998222"> </tspan></text>
    <flowRoot
       transform="matrix(0.24441162,0.14111111,-0.14111111,0.24441162,34.734061,-258.3879)"
       xml:space="preserve"
       id="flowRoot4185"
       style="color:#000000;font-style:normal;font-variant:normal;font-weight:normal;font-stretch:normal;line-height:0.01%;font-family:'Droid Sans Thai';-inkscape-font-specification:'Droid Sans Thai';text-indent:0;text-align:center;text-decoration:none;text-decoration-line:none;text-decoration-style:solid;text-decoration-color:#000000;letter-spacing:normal;word-spacing:normal;text-transform:none;writing-mode:lr-tb;direction:ltr;baseline-shift:baseline;text-anchor:middle;white-space:normal;clip-rule:nonzero;display:inline;overflow:visible;visibility:visible;opacity:1;isolation:auto;mix-blend-mode:normal;color-interpolation:sRGB;color-interpolation-filters:linearRGB;solid-color:#000000;solid-opacity:1;fill:#cc0000;fill-opacity:0;fill-rule:evenodd;stroke:none;stroke-width:0.49599999;stroke-linecap:butt;stroke-linejoin:round;stroke-miterlimit:10;stroke-dasharray:none;stroke-dashoffset:0;stroke-opacity:1;marker:none;color-rendering:auto;image-rendering:auto;shape-rendering:auto;text-rendering:auto;enable-background:accumulate"><flowRegion
         id="flowRegion4187"><rect
           id="rect4189"
           width="508.26855"
           height="127.62691"
           x="135.46364"
           y="237.34126"
           style="font-size:50px" /></flowRegion><flowPara
         id="flowPara4191"
         style="font-size:50px;line-height:0"> </flowPara></flowRoot>    <g
       id="g4772"
       transform="matrix(1.4834228,0,0,1.4834228,-11.500276,-103.80983)">
      <path
         d="m 144.74574,75.279946 c -2.20713,-1.27429 -5.47853,0.26492 -6.7529,2.4722 l -1.09198,1.89136 c -0.9015,1.56144 -0.77645,3.42482 0.14786,4.8302 -0.16896,0.24744 -0.33763,0.49839 -0.49001,0.76233 l -21.70289,37.590514 c -1.23368,0.77207 -2.47881,1.5991 -3.76739,2.38724 l -66.040734,39.78329 c -10.723314,6.55968 -5.518392,20.40619 0.31131,23.77197 l 80.831814,46.66827 c 5.82946,3.36564 20.41734,1.20591 20.74279,-11.61638 l 1.43538,-77.08321 c 0.0383,-1.51013 0.13199,-3.00195 0.18373,-4.45627 l 21.70289,-37.59051 c 0.15237,-0.26391 0.28536,-0.53546 0.41519,-0.80552 1.67936,0.0976 3.35556,-0.72574 4.25699,-2.28707 l 1.09197,-1.891354 c 1.27432,-2.20719 0.9841,-5.80282 -1.22299,-7.07709 z"
         inkscape:connector-curvature="0"
         style="fill:#000000;stroke-width:7.28133345"
         sodipodi:nodetypes="ssscscccsscccscssss"
         id="rect2985" />
      <g
         transform="matrix(0.39817097,0.22988411,-0.22988411,0.39817097,-127.12041,-426.86295)"
         style="fill:#ffffff"
         id="g3213">
        <path
           d="m 1080.3,768.8 h 31.307 c 12.456,0 16.531,11.607 22.483,22.611 l 70.701,130.71 c 14.28,26.399 -10.028,38.012 -22.484,38.012 h -172.71 c -12.456,0 -35.208,-14.489 -22.483,-38.012 l 70.701,-130.71 c 5.9522,-11.004 10.028,-22.611 22.483,-22.611 z"
           inkscape:connector-curvature="0"
           style="fill:#ffffff;stroke-width:25.79999924"
           sodipodi:nodetypes="sssssssss"
           id="path3201" />
        <rect
           x="1063.8"
           y="670.48999"
           width="64.230003"
           height="117.7"
           ry="0"
           style="fill:#ffffff;stroke-width:25.79999924"
           id="rect3203" />
        <rect
           x="-671.96002"
           y="1058.1"
           width="13.263"
           height="75.528999"
           ry="4.3000002"
           transform="rotate(-90)"
           style="fill:#ffffff;stroke-width:25.79999924"
           id="rect3205" />
      </g>
      <path
         inkscape:connector-curvature="0"
         style="fill:#648700;fill-opacity:1;stroke-width:7.28133345"
         sodipodi:nodetypes="csssscc"
         d="m 139.31573,157.3403 -2.19115,55.68286 c -0.47956,12.19008 -11.25506,11.34264 -15.63956,8.81125 L 60.690063,186.73442 c -4.384505,-2.53139 -9.461259,-12.27568 -0.189025,-17.94988 l 45.417272,-27.79331 c 15.06415,18.88306 34.40637,1.73896 33.39777,16.3496 z"
         id="path3201-1" />
      <rect
         transform="rotate(30)"
         x="185.74338"
         y="3.2806222"
         width="4.2559109"
         height="46.312668"
         ry="2.1279273"
         style="fill:#000000;stroke-width:0.28222224"
         id="rect3264" />
      <path
         inkscape:connector-curvature="0"
         id="path3779-4"
         d="m 132.59919,146.23405 c -1.0889,-1e-5 -1.2796,0.28156 -1.38815,2.0491 -0.13513,2.20023 -0.51174,2.96719 -2.14044,4.3563 -1.10745,0.94451 -1.58869,1.22732 -3.39425,1.99287 -2.54307,1.07825 -4.15792,1.54343 -10.62803,3.06174 -9.2671,2.1747 -11.30445,2.94333 -15.867162,5.9896 -6.539755,4.36624 -9.930594,9.17211 -11.259393,15.95698 -0.244882,1.25087 -0.303011,2.35901 -0.296821,5.76334 0.0093,6.01136 0.48073,8.63803 1.669621,9.30878 1.175412,0.66315 3.341149,-0.32139 6.375272,-2.89726 3.596228,-3.05301 4.901933,-5.07747 7.379603,-11.44291 0.67261,-1.72799 1.36626,-3.34481 1.54168,-3.59314 0.40206,-0.56927 1.06301,-0.73563 1.51737,-0.38158 0.44778,0.34897 0.42554,0.59306 -0.27314,2.92172 -0.69681,2.32258 -0.79633,3.26843 -0.38064,3.62679 0.46074,0.39721 1.02548,0.14329 2.20378,-0.99185 3.39908,-3.27461 6.23479,-6.75148 9.21875,-11.30287 2.09898,-3.20168 2.41764,-3.59704 2.99701,-3.72216 1.5507,-0.33511 1.11012,1.65071 -1.27429,5.7456 -5.51315,9.46807 -16.15941,19.3257 -28.196151,26.10779 -1.579043,0.88972 -3.341593,1.80103 -5.170071,2.68996 v 3.41949 c 3.6285,-1.55351 6.743792,-2.82852 7.195371,-2.93212 0.510597,-0.11727 2.264135,-0.27389 3.896418,-0.34855 3.523873,-0.16084 5.256043,-0.45487 9.101043,-1.54402 10.00811,-2.83496 17.77885,-8.35564 23.73103,-16.86016 2.02224,-2.88941 3.02331,-5.00507 4.1312,-8.73031 2.07736,-6.98497 2.4933,-13.27684 1.41502,-21.41213 -0.46285,-3.49182 -0.95614,-6.1794 -1.1937,-6.50388 -0.18287,-0.24974 -0.39822,-0.32712 -0.91093,-0.32712 z"
         style="fill:#ffffff;fill-opacity:1;stroke-width:0.15663224" />
    </g>
    <g
       aria-label="ds@buckeye"
       style="font-style:normal;font-weight:normal;font-size:12.23379993px;line-height:1.25;font-family:sans-serif;letter-spacing:0px;word-spacing:0px;fill:#000000;fill-opacity:1;stroke:none;stroke-width:0.30584499"
       id="text4792-4"
       transform="translate(43.297663,-4.2763124)">
      <path
         d="m 14.260008,259.77779 v 8.31899 c -4.811961,-2.32443 -12.2337993,0.20389 -12.19302,6.44313 v 7.78885 c 0.6932487,8.686 10.521067,7.91119 16.678746,5.46443 v -28.0154 z m 0,25.32397 c -2.40598,1.06026 -7.5033969,0.93792 -7.7072935,-2.773 v -7.99275 c 0.3262346,-3.42546 5.1789755,-3.99637 7.7072935,-2.40598 z"
         style="font-style:normal;font-variant:normal;font-weight:600;font-stretch:normal;font-size:40.77933121px;font-family:'Uni Sans SemiBold';-inkscape-font-specification:'Uni Sans SemiBold, Semi-Bold';font-variant-ligatures:normal;font-variant-caps:normal;font-variant-numeric:normal;font-feature-settings:normal;text-align:start;writing-mode:lr-tb;text-anchor:start;stroke-width:0.30584499"
         id="path24"
         inkscape:connector-curvature="0" />
      <path
         d="m 21.711156,284.08227 c 3.343905,7.2995 15.781601,6.60626 15.781601,-1.59039 -0.04078,-4.48573 -3.588581,-5.79067 -6.973265,-6.36158 -1.753512,-0.28545 -3.996375,-0.89714 -3.833258,-2.77299 0.244676,-2.65066 5.301314,-2.44676 7.625735,-0.12234 l 2.691436,-2.93611 c -2.079746,-2.03897 -4.648843,-3.01767 -6.891707,-3.01767 -3.588581,0 -7.870411,1.75351 -7.870411,6.44313 0,4.77119 4.526506,5.95379 7.503397,6.5247 1.468056,0.32623 3.303126,0.7748 3.303126,2.32442 -0.163117,3.42546 -5.831444,3.09923 -7.992749,-0.65247 z"
         style="font-style:normal;font-variant:normal;font-weight:600;font-stretch:normal;font-size:40.77933121px;font-family:'Uni Sans SemiBold';-inkscape-font-specification:'Uni Sans SemiBold, Semi-Bold';font-variant-ligatures:normal;font-variant-caps:normal;font-variant-numeric:normal;font-feature-settings:normal;text-align:start;writing-mode:lr-tb;text-anchor:start;stroke-width:0.30584499"
         id="path26"
         inkscape:connector-curvature="0" />
      <path
         d="m 50.206987,276.41576 c 0,-2.93611 1.590394,-7.0956 4.975078,-7.01405 1.141822,0 1.671953,1.06027 1.671953,2.5691 0,2.69144 -2.120525,6.85093 -4.771182,6.85093 -1.141821,0 -1.875849,-1.14182 -1.875849,-2.40598 z m 13.701855,-4.56729 c -0.04078,3.46625 -2.242863,7.62574 -4.608064,7.7073 l 2.528318,-12.39692 -3.01767,-0.57091 -0.285456,0.93793 c -0.978704,-2.65066 -5.138195,-2.20209 -7.2995,-1.14183 -3.588581,1.75352 -5.219754,5.74989 -5.219754,10.0725 0,5.05664 5.301313,8.52288 9.827819,5.50521 0.57091,1.14182 1.753511,1.59039 2.854553,1.59039 4.648844,0 9.297687,-5.09741 9.297687,-11.78522 0,-6.89171 -5.790665,-12.15225 -13.497958,-12.15225 -8.115087,0 -14.476663,6.48392 -14.476663,14.68056 0,8.19665 4.485726,14.72134 14.435883,14.72134 1.794291,0 3.751699,-0.40779 6.320797,-1.42727 l -1.712732,-3.26235 c -9.338467,3.3439 -15.455367,-2.60988 -15.25147,-9.99094 0.163117,-5.42365 4.037154,-10.88808 10.765743,-10.88808 5.138196,0 9.379246,2.85456 9.338467,8.40054 z"
         style="font-style:normal;font-variant:normal;font-weight:600;font-stretch:normal;font-size:40.77933121px;font-family:'Uni Sans SemiBold';-inkscape-font-specification:'Uni Sans SemiBold, Semi-Bold';font-variant-ligatures:normal;font-variant-caps:normal;font-variant-numeric:normal;font-feature-settings:normal;text-align:start;writing-mode:lr-tb;text-anchor:start;stroke-width:0.30584499"
         id="path28"
         inkscape:connector-curvature="0" />
      <path
         d="m 70.843241,259.77779 v 28.0154 c 6.157679,2.44676 15.985498,3.22157 16.678746,-5.46443 v -7.78885 c 0.04078,-6.23924 -7.381058,-8.76756 -12.19302,-6.44313 v -8.31899 z m 4.485726,12.15224 c 2.528319,-1.59039 7.381059,-1.01948 7.707294,2.40598 v 7.99275 c -0.203897,3.71092 -5.301313,3.83326 -7.707294,2.773 z"
         style="font-style:normal;font-variant:normal;font-weight:600;font-stretch:normal;font-size:40.77933121px;font-family:'Uni Sans SemiBold';-inkscape-font-specification:'Uni Sans SemiBold, Semi-Bold';font-variant-ligatures:normal;font-variant-caps:normal;font-variant-numeric:normal;font-feature-settings:normal;text-align:start;writing-mode:lr-tb;text-anchor:start;stroke-width:0.30584499"
         id="path30"
         inkscape:connector-curvature="0" />
      <path
         d="m 108.07286,267.56664 h -4.44495 v 16.92343 c -2.65065,1.42727 -7.462614,0.85636 -7.625731,-2.65066 v -14.27277 h -4.485727 v 14.19121 c 0,8.31899 9.583148,8.60444 16.556408,5.58677 z"
         style="font-style:normal;font-variant:normal;font-weight:600;font-stretch:normal;font-size:40.77933121px;font-family:'Uni Sans SemiBold';-inkscape-font-specification:'Uni Sans SemiBold, Semi-Bold';font-variant-ligatures:normal;font-variant-caps:normal;font-variant-numeric:normal;font-feature-settings:normal;text-align:start;writing-mode:lr-tb;text-anchor:start;stroke-width:0.30584499"
         id="path32"
         inkscape:connector-curvature="0" />
      <path
         d="m 112.17054,281.71707 c 0,4.89352 4.20027,7.25872 8.31898,7.25872 3.30313,0 7.13639,-1.50883 8.27821,-5.54599 l -4.15949,-1.54961 c -1.10105,3.95559 -7.5034,3.3439 -7.95197,-0.12234 v -7.21794 c 0.44857,-3.46624 6.85092,-4.07793 7.95197,-0.12234 l 4.07793,-1.54961 c -1.14182,-4.03716 -4.89352,-5.54599 -8.19665,-5.54599 -4.11871,0 -8.31898,2.3652 -8.31898,7.25872 z"
         style="font-style:normal;font-variant:normal;font-weight:600;font-stretch:normal;font-size:40.77933121px;font-family:'Uni Sans SemiBold';-inkscape-font-specification:'Uni Sans SemiBold, Semi-Bold';font-variant-ligatures:normal;font-variant-caps:normal;font-variant-numeric:normal;font-feature-settings:normal;text-align:start;writing-mode:lr-tb;text-anchor:start;stroke-width:0.30584499"
         id="path34"
         inkscape:connector-curvature="0" />
      <path
         d="m 131.46426,259.81857 v 28.87177 h 4.48573 v -7.38106 l 1.26416,-1.26416 6.64703,8.64522 h 5.26053 l -8.76756,-11.37744 8.80834,-9.74626 h -5.62755 l -7.58495,8.52288 v -16.27095 z"
         style="font-style:normal;font-variant:normal;font-weight:600;font-stretch:normal;font-size:40.77933121px;font-family:'Uni Sans SemiBold';-inkscape-font-specification:'Uni Sans SemiBold, Semi-Bold';font-variant-ligatures:normal;font-variant-caps:normal;font-variant-numeric:normal;font-feature-settings:normal;text-align:start;writing-mode:lr-tb;text-anchor:start;stroke-width:0.30584499"
         id="path36"
         inkscape:connector-curvature="0" />
      <path
         d="m 162.59992,276.49732 h -7.74807 v -2.03897 c -0.16312,-4.07793 7.74807,-4.03715 7.74807,-0.0816 z m -0.0816,6.15768 c -1.71273,3.5478 -7.74807,2.69143 -7.66651,-0.77481 v -1.67195 h 12.07068 v -5.74989 c 0,-4.9343 -4.20027,-7.25872 -8.23743,-7.25872 -4.15949,0 -8.35976,2.32442 -8.35976,7.25872 v 7.42184 c 0,4.85274 4.20027,7.25872 8.35976,7.25872 2.773,0 5.95379,-1.42728 7.58496,-4.32261 z"
         style="font-style:normal;font-variant:normal;font-weight:600;font-stretch:normal;font-size:40.77933121px;font-family:'Uni Sans SemiBold';-inkscape-font-specification:'Uni Sans SemiBold, Semi-Bold';font-variant-ligatures:normal;font-variant-caps:normal;font-variant-numeric:normal;font-feature-settings:normal;text-align:start;writing-mode:lr-tb;text-anchor:start;stroke-width:0.30584499"
         id="path38"
         inkscape:connector-curvature="0" />
      <path
         d="m 183.07879,267.56664 v 16.3933 c -2.28364,1.63117 -7.74807,1.26415 -7.95197,-2.20209 v -14.19121 h -4.48573 v 14.15043 c 0,6.19846 7.38106,8.72678 12.60082,6.56547 0.44857,5.38288 -7.17717,5.01586 -9.70548,1.67196 l -2.69144,2.5691 c 3.79248,5.913 16.67875,5.54598 16.67875,-3.83326 v -21.1237 z"
         style="font-style:normal;font-variant:normal;font-weight:600;font-stretch:normal;font-size:40.77933121px;font-family:'Uni Sans SemiBold';-inkscape-font-specification:'Uni Sans SemiBold, Semi-Bold';font-variant-ligatures:normal;font-variant-caps:normal;font-variant-numeric:normal;font-feature-settings:normal;text-align:start;writing-mode:lr-tb;text-anchor:start;stroke-width:0.30584499"
         id="path40"
         inkscape:connector-curvature="0" />
      <path
         d="m 203.77749,276.49732 h -7.74808 v -2.03897 c -0.16311,-4.07793 7.74808,-4.03715 7.74808,-0.0816 z m -0.0816,6.15768 c -1.71273,3.5478 -7.74808,2.69143 -7.66652,-0.77481 v -1.67195 h 12.07069 v -5.74989 c 0,-4.9343 -4.20028,-7.25872 -8.23743,-7.25872 -4.15949,0 -8.35976,2.32442 -8.35976,7.25872 v 7.42184 c 0,4.85274 4.20027,7.25872 8.35976,7.25872 2.773,0 5.95378,-1.42728 7.58496,-4.32261 z"
         style="font-style:normal;font-variant:normal;font-weight:600;font-stretch:normal;font-size:40.77933121px;font-family:'Uni Sans SemiBold';-inkscape-font-specification:'Uni Sans SemiBold, Semi-Bold';font-variant-ligatures:normal;font-variant-caps:normal;font-variant-numeric:normal;font-feature-settings:normal;text-align:start;writing-mode:lr-tb;text-anchor:start;stroke-width:0.30584499"
         id="path42"
         inkscape:connector-curvature="0" />
    </g>
  </g>
</svg>
