<svg xmlns="http://www.w3.org/2000/svg" width="1124" height="1124" viewBox="0 0 297.392 297.392">
  <text style="line-height:0%;-inkscape-font-specification:'Droid Sans Thai';text-indent:0;text-align:center;text-decoration-line:none;text-decoration-style:solid;text-decoration-color:#000;text-transform:none;isolation:auto;mix-blend-mode:normal;marker:none" x="-26.139" y="-212.249" transform="rotate(30 -.73 .196)" color="#000" font-weight="400" font-size="3.387" font-family="Droid Sans Thai" text-anchor="middle" white-space="normal" overflow="visible" fill-rule="evenodd" stroke-width=".14" stroke-linejoin="round" stroke-miterlimit="10">
    <tspan x="-23.658" y="-212.249" style="line-height:0" font-size="14.111"></tspan>
  </text>
  <g transform="matrix(1.48342 0 0 1.48342 -11.5 -103.418)">
    <path d="M144.746 75.28c-2.207-1.274-5.479.265-6.753 2.472l-1.092 1.892a4.597 4.597 0 0 0 .148 4.83c-.17.247-.338.498-.49.762l-21.703 37.59c-1.234.773-2.479 1.6-3.768 2.388l-66.04 39.783c-10.724 6.56-5.519 20.406.311 23.772l80.832 46.668c5.83 3.366 20.417 1.206 20.743-11.616l1.435-77.083c.038-1.51.132-3.002.184-4.457l21.703-37.59c.152-.264.285-.536.415-.806a4.597 4.597 0 0 0 4.257-2.287l1.092-1.891c1.274-2.207.984-5.803-1.223-7.077z"/>
    <g transform="rotate(30 732.975 -450.648) scale(.45977)" fill="#fff">
      <path d="M1080.3 768.8h31.307c12.456 0 16.531 11.607 22.483 22.611l70.701 130.71c14.28 26.399-10.028 38.012-22.484 38.012h-172.71c-12.456 0-35.208-14.489-22.483-38.012l70.701-130.71c5.952-11.004 10.028-22.611 22.483-22.611z"/>
      <rect x="1063.8" y="670.49" width="64.23" height="117.7" ry="0"/>
      <rect x="-671.96" y="1058.1" width="13.263" height="75.529" ry="4.3" transform="rotate(-90)"/>
    </g>
    <path d="M139.316 157.34l-2.191 55.683c-.48 12.19-11.255 11.343-15.64 8.811l-60.795-35.1c-4.384-2.531-9.461-12.275-.189-17.95l45.417-27.793c15.064 18.883 34.407 1.74 33.398 16.35z" fill="#648700"/>
    <rect transform="rotate(30)" x="185.743" y="3.281" width="4.256" height="46.313" ry="2.128"/>
    <path d="M132.6 146.234c-1.09 0-1.28.282-1.389 2.05-.135 2.2-.512 2.966-2.14 4.355-1.108.945-1.59 1.228-3.395 1.993-2.543 1.079-4.158 1.544-10.628 3.062-9.267 2.175-11.304 2.943-15.867 5.99-6.54 4.366-9.93 9.172-11.26 15.957-.244 1.25-.302 2.359-.296 5.763.01 6.011.48 8.638 1.67 9.309 1.175.663 3.34-.322 6.375-2.897 3.596-3.054 4.902-5.078 7.38-11.443.672-1.728 1.366-3.345 1.541-3.594.402-.569 1.063-.735 1.517-.381.448.349.426.593-.273 2.922-.696 2.322-.796 3.268-.38 3.626.46.398 1.025.144 2.203-.991 3.4-3.275 6.235-6.752 9.22-11.303 2.098-3.202 2.417-3.597 2.996-3.723 1.55-.335 1.11 1.651-1.274 5.746-5.513 9.468-16.16 19.326-28.196 26.108a97.688 97.688 0 0 1-5.17 2.69v3.42c3.628-1.554 6.744-2.83 7.195-2.933.51-.117 2.264-.274 3.897-.348 3.523-.161 5.256-.455 9.1-1.544 10.009-2.835 17.78-8.356 23.732-16.86 2.022-2.89 3.023-5.006 4.13-8.73 2.078-6.986 2.494-13.278 1.416-21.413-.463-3.492-.956-6.18-1.194-6.504-.183-.25-.398-.327-.91-.327z" fill="#fff"/>
  </g>
</svg>
